<?xml version="1.0" encoding="UTF-8"?>
<svg width="32" height="32" viewBox="0 0 32 32" fill="none" xmlns="http://www.w3.org/2000/svg">
  <rect width="32" height="32" rx="8" fill="#1B1B1E"/>
  <path d="M22.9499 18.7249C23.0832 17.9249 22.9832 17.2082 22.6499 16.5749C22.3166 15.9416 21.7999 15.4749 21.0999 15.1749L19.6499 14.5749L20.1499 13.0749C20.3832 12.2749 20.3332 11.4916 19.9999 10.7249C19.6666 9.95824 19.0999 9.37491 18.2999 8.97491L16.8499 8.27491L17.2999 6.87491C17.4332 6.37491 17.3832 5.89157 17.1499 5.42491C16.9166 4.95824 16.5666 4.62491 16.0999 4.42491C15.6332 4.22491 15.1499 4.20824 14.6499 4.37491C14.1499 4.54157 13.7666 4.85824 13.4999 5.32491L8.94987 13.0749C8.54987 13.7749 8.33321 14.5249 8.29987 15.3249C8.26654 16.1249 8.36654 16.8916 8.59987 17.6249C8.83321 18.3582 9.19154 19.0249 9.67487 19.6249C10.1582 20.2249 10.7166 20.7082 11.3499 21.0749L15.8499 23.6749C16.6499 24.1416 17.4999 24.4082 18.3999 24.4749C19.2999 24.5416 20.1666 24.4249 20.9999 24.1249C21.8332 23.8249 22.5666 23.3582 23.1999 22.7249C23.8332 22.0916 24.2832 21.3416 24.5499 20.4749C24.8166 19.6082 24.8832 18.7249 24.7499 17.8249C24.6166 16.9249 24.2832 16.1249 23.7499 15.4249L22.9499 18.7249ZM20.8499 21.8749C20.2832 22.2749 19.6666 22.5082 18.9999 22.5749C18.3332 22.6416 17.6832 22.5416 17.0499 22.2749L12.5499 19.6749C11.7499 19.2082 11.1499 18.5582 10.7499 17.7249C10.3499 16.8916 10.2166 16.0082 10.3499 15.0749L13.9999 9.12491L15.4499 9.82491C15.8499 10.0249 16.1499 10.3249 16.3499 10.7249C16.5499 11.1249 16.5832 11.5416 16.4499 11.9749L15.4999 14.9749L18.3999 16.3749C18.7999 16.5749 19.0999 16.8749 19.2999 17.2749C19.4999 17.6749 19.5332 18.0916 19.3999 18.5249L18.4499 21.5249C19.2832 21.7916 20.0832 21.8082 20.8499 21.5749V21.8749Z" fill="#D4AF37"/>
</svg>